<svg xmlns="http://www.w3.org/2000/svg" width="1200" height="750" viewBox="0 0 1200 750">
  <defs>
    <linearGradient id="bg2" x1="0%" y1="0%" x2="100%" y2="100%">
      <stop offset="0%" style="stop-color:#0a0a0a"/>
      <stop offset="100%" style="stop-color:#0a1a1a"/>
    </linearGradient>
    <linearGradient id="accent2" x1="0%" y1="0%" x2="100%" y2="0%">
      <stop offset="0%" style="stop-color:#06b6d4"/>
      <stop offset="100%" style="stop-color:#10b981"/>
    </linearGradient>
  </defs>
  <!-- Browser chrome -->
  <rect width="1200" height="750" rx="12" fill="#111"/>
  <rect y="0" width="1200" height="36" rx="12" fill="#1a1a1a"/>
  <circle cx="20" cy="18" r="5" fill="#ef4444" opacity="0.7"/>
  <circle cx="38" cy="18" r="5" fill="#eab308" opacity="0.7"/>
  <circle cx="56" cy="18" r="5" fill="#22c55e" opacity="0.7"/>
  <rect x="200" y="10" width="800" height="16" rx="8" fill="#0a0a0a"/>
  <text x="600" y="22" text-anchor="middle" font-family="system-ui" font-size="9" fill="#555">sintorio.com</text>
  <!-- Content area -->
  <rect x="0" y="36" width="1200" height="714" fill="url(#bg2)"/>
  <!-- Sidebar -->
  <rect x="0" y="36" width="240" height="714" fill="#111" stroke="#1a1a1a" stroke-width="1"/>
  <rect x="20" y="56" width="100" height="20" rx="4" fill="url(#accent2)" opacity="0.5"/>
  <rect x="20" y="100" width="200" height="14" rx="3" fill="#333"/>
  <rect x="20" y="126" width="180" height="14" rx="3" fill="#222"/>
  <rect x="20" y="152" width="190" height="14" rx="3" fill="#222"/>
  <rect x="20" y="178" width="170" height="14" rx="3" fill="#222"/>
  <rect x="20" y="204" width="200" height="14" rx="3" fill="#222"/>
  <!-- Main content area -->
  <!-- Upload/processing zone -->
  <rect x="280" y="60" width="880" height="200" rx="12" fill="#1a1a1a" stroke="#222" stroke-width="1" stroke-dasharray="8 4"/>
  <rect x="660" y="130" width="120" height="40" rx="20" fill="url(#accent2)" opacity="0.4"/>
  <!-- Video timeline / processing UI -->
  <rect x="280" y="290" width="880" height="60" rx="8" fill="#1a1a1a" stroke="#222" stroke-width="1"/>
  <rect x="300" y="305" width="200" height="30" rx="4" fill="url(#accent2)" opacity="0.2"/>
  <rect x="520" y="305" width="150" height="30" rx="4" fill="url(#accent2)" opacity="0.15"/>
  <rect x="690" y="305" width="180" height="30" rx="4" fill="url(#accent2)" opacity="0.1"/>
  <!-- Progress bar -->
  <rect x="280" y="370" width="880" height="4" rx="2" fill="#222"/>
  <rect x="280" y="370" width="550" height="4" rx="2" fill="url(#accent2)" opacity="0.6"/>
  <!-- Output cards -->
  <rect x="280" y="400" width="280" height="310" rx="10" fill="#1a1a1a" stroke="#222" stroke-width="1"/>
  <rect x="280" y="400" width="280" height="180" rx="10" fill="#151520"/>
  <rect x="300" y="600" width="160" height="14" rx="3" fill="#ccc" opacity="0.5"/>
  <rect x="300" y="624" width="120" height="12" rx="3" fill="#666"/>
  <rect x="300" y="648" width="80" height="20" rx="4" fill="url(#accent2)" opacity="0.3"/>
  <rect x="580" y="400" width="280" height="310" rx="10" fill="#1a1a1a" stroke="#222" stroke-width="1"/>
  <rect x="580" y="400" width="280" height="180" rx="10" fill="#151520"/>
  <rect x="600" y="600" width="140" height="14" rx="3" fill="#ccc" opacity="0.5"/>
  <rect x="600" y="624" width="100" height="12" rx="3" fill="#666"/>
  <rect x="600" y="648" width="80" height="20" rx="4" fill="url(#accent2)" opacity="0.3"/>
  <rect x="880" y="400" width="280" height="310" rx="10" fill="#1a1a1a" stroke="#222" stroke-width="1"/>
  <rect x="880" y="400" width="280" height="180" rx="10" fill="#151520"/>
  <rect x="900" y="600" width="180" height="14" rx="3" fill="#ccc" opacity="0.5"/>
  <rect x="900" y="624" width="110" height="12" rx="3" fill="#666"/>
  <rect x="900" y="648" width="80" height="20" rx="4" fill="url(#accent2)" opacity="0.3"/>
</svg>
